<svg width="300" height="300" viewBox="0 0 300 300" xmlns="http://www.w3.org/2000/svg">
  <!-- Background gradient -->
  <defs>
    <radialGradient id="bgGradient" cx="50%" cy="50%" r="50%">
      <stop offset="0%" style="stop-color:#8BC34A;stop-opacity:1" />
      <stop offset="100%" style="stop-color:#2E7D32;stop-opacity:1" />
    </radialGradient>
    <linearGradient id="circleGradient" x1="0%" y1="0%" x2="100%" y2="100%">
      <stop offset="0%" style="stop-color:#E8F5E8;stop-opacity:1" />
      <stop offset="50%" style="stop-color:#C8E6C9;stop-opacity:1" />
      <stop offset="100%" style="stop-color:#A5D6A7;stop-opacity:1" />
    </linearGradient>
  </defs>
  
  <!-- Background -->
  <rect width="300" height="300" fill="url(#bgGradient)"/>
  
  <!-- Main circle -->
  <circle cx="150" cy="150" r="120" fill="url(#circleGradient)" stroke="#4CAF50" stroke-width="3"/>
  
  <!-- Inner decorative elements -->
  <circle cx="150" cy="150" r="100" fill="#FFFFFF" opacity="0.9"/>
  
  <!-- Leaf decorations -->
  <path d="M80 120 Q70 110 75 100 Q85 105 80 120" fill="#4CAF50"/>
  <path d="M85 125 Q75 115 80 105 Q90 110 85 125" fill="#66BB6A"/>
  <path d="M220 180 Q230 190 225 200 Q215 195 220 180" fill="#4CAF50"/>
  <path d="M215 175 Q225 185 220 195 Q210 190 215 175" fill="#66BB6A"/>
  
  <!-- Wood texture lines -->
  <path d="M120 140 Q140 135 160 140 Q180 145 200 140" stroke="#8D6E63" stroke-width="1" fill="none" opacity="0.3"/>
  <path d="M110 160 Q130 155 150 160 Q170 165 190 160" stroke="#8D6E63" stroke-width="1" fill="none" opacity="0.3"/>
  <path d="M125 180 Q145 175 165 180 Q185 185 205 180" stroke="#8D6E63" stroke-width="1" fill="none" opacity="0.3"/>
  
  <!-- Text -->
  <text x="150" y="130" font-family="Arial, sans-serif" font-size="32" font-weight="bold" text-anchor="middle" fill="#2E2E2E">
    Mounjaro
  </text>
  <text x="150" y="170" font-family="Arial, sans-serif" font-size="28" font-weight="bold" text-anchor="middle" fill="#2E2E2E">
    de Pobre
  </text>
  
  <!-- Decorative herbs/leaves -->
  <g transform="translate(90,90)">
    <path d="M0 0 Q-5 -10 0 -15 Q5 -10 0 0" fill="#4CAF50"/>
    <path d="M3 -2 Q8 -12 13 -17 Q18 -12 13 -2" fill="#66BB6A"/>
    <path d="M-3 -2 Q-8 -12 -13 -17 Q-18 -12 -13 -2" fill="#66BB6A"/>
  </g>
  
  <g transform="translate(210,210)">
    <path d="M0 0 Q5 10 0 15 Q-5 10 0 0" fill="#4CAF50"/>
    <path d="M-3 2 Q-8 12 -13 17 Q-18 12 -13 2" fill="#66BB6A"/>
    <path d="M3 2 Q8 12 13 17 Q18 12 13 2" fill="#66BB6A"/>
  </g>
</svg>